<svg xmlns="http://www.w3.org/2000/svg" width="512" height="512" viewBox="0 0 512 512" style="overflow: visible; max-width: 100%; max-height: 100%;" data-id="$$debug" visibility="visible"><g data-icon="" transform="matrix(1.0000042457843759, 0, 0, 1.0000042457843759, -0.002090347850081849, -0.0019493223864159859)" data-uid="o_fbdci1hia_7"><svg id="uf3k07dcc0_49567" enable-background="new 0 0 511.999 511.999" height="512" viewBox="0 0 511.999 511.999" width="512" xmlns="http://www.w3.org/2000/svg" data-uid="o_fbdci1hia_8"><g data-uid="o_fbdci1hia_9"><path d="m346.274 371.245c-13.433-5.147-20.151-20.209-15.003-33.642 5.145-13.433 20.209-20.15 33.641-15.004 16.349 6.264 41.525 6.055 60.918-8.528 20.164-15.167 29.139-42.978 25.954-80.43-1.219-14.333 9.413-26.941 23.746-28.16 14.342-1.208 26.942 9.413 28.16 23.746 10.854 127.622-90.26 167.747-157.416 142.018z" fill="#fff0ce" data-uid="o_fbdci1hia_10"></path><path d="m458.965 354.198c-.661-4.156-1.47-8.157-2.248-11.999-3.033-15.03-8.472-28.885-17.595-42.259-3.685 5.507-8.117 10.239-13.292 14.131-19.393 14.584-44.57 14.792-60.918 8.528-13.432-5.146-28.496 1.571-33.641 15.004-5.147 13.433 1.57 28.495 15.003 33.642 35.244 13.503 79.834 8.854 112.691-17.047z" fill="#ffddb9" data-uid="o_fbdci1hia_11"></path><path d="m503.691 229.228c-1.218-14.333-13.818-24.955-28.16-23.746-14.334 1.219-24.965 13.827-23.746 28.16.724 8.51.813 16.516.292 23.995 12.781 4.702 32.306 6.97 52.046 1.941.585-9.511.481-19.614-.432-30.35z" fill="#e9a982" data-uid="o_fbdci1hia_12"></path><path d="m163.869 357.92c-20.959-40.985-4.724-91.2 36.261-112.159 40.985-20.96 91.201-4.724 112.159 36.261.326.636.623 1.172.884 1.616 2.568.135 7.533.011 15.656-1.63 33.852-6.835 67.038 7.877 85.36 34.695 6.107 8.94.551 23.418 2.829 34.698 2.159 10.688 7.936 5.054 12.29 13.723 13.932 47.286-33.044 73.33-67.477 80.285-92.748 18.73-162.31-17.771-197.962-87.489z" fill="#fff0ce" data-uid="o_fbdci1hia_13"></path><path d="m328.829 282.008c-8.122 1.641-13.088 1.765-15.656 1.63-.262-.444-.559-.979-.884-1.616-20.958-40.985-71.173-57.221-112.158-36.261-40.985 20.958-57.22 71.173-36.261 112.159 10.785 21.091 24.679 39.136 41.374 53.537 24.029-10.211 48.577-27.616 72.707-51.746 26.188-26.188 44.314-52.453 54.066-78.283-1.062.172-2.125.365-3.188.58z" fill="#ffddb9" data-uid="o_fbdci1hia_14"></path><path d="m95.154 233.011c-12.676-.409-45.595 8.917-73.413 24.592-14.881 8.385-18.857 28.157-8.32 41.6 16.401 20.923 42.12 42.63 73.617 29.025z" fill="#fff0ce" data-uid="o_fbdci1hia_15"></path><path d="m54.175 330.523c10.014 2.943 21.031 2.817 32.864-2.294l8.115-95.217c-7.515-.242-22.145 2.937-38.609 8.832-10.006 29.496-10.797 60.578-2.37 88.679z" fill="#ffddb9" data-uid="o_fbdci1hia_16"></path><path d="m87.039 328.228 3.383-39.701c-46.175-17.702-77.492-1.171-77.001 10.676 16.402 20.923 42.12 42.63 73.618 29.025z" fill="#ffbbd5" data-uid="o_fbdci1hia_17"></path><path d="m54.174 330.523c10.014 2.943 21.031 2.817 32.864-2.295l3.383-39.701c-15.89-6.092-30.02-8.129-41.7-7.699-1.129 16.969.69 33.808 5.453 49.695z" fill="#ff96c0" data-uid="o_fbdci1hia_18"></path><path d="m151.251 176.914c-.409-12.676 8.917-45.595 24.592-73.413 8.385-14.881 28.157-18.857 41.6-8.319 20.923 16.401 42.63 42.12 29.025 73.617z" fill="#fff0ce" data-uid="o_fbdci1hia_19"></path><path d="m248.762 135.935c2.943 10.014 2.817 21.031-2.295 32.864l-95.217 8.115c-.242-7.515 2.937-22.145 8.832-38.609 29.498-10.006 60.58-10.797 88.68-2.37z" fill="#ffddb9" data-uid="o_fbdci1hia_20"></path><path d="m246.468 168.799-39.701 3.384c-17.702-46.175-1.171-77.492 10.676-77.001 20.923 16.401 42.63 42.12 29.025 73.617z" fill="#ffbbd5" data-uid="o_fbdci1hia_21"></path><path d="m248.762 135.935c2.943 10.014 2.817 21.031-2.295 32.864l-39.701 3.384c-6.092-15.89-8.129-30.02-7.699-41.7 16.97-1.131 33.808.688 49.695 5.452z" fill="#ff96c0" data-uid="o_fbdci1hia_22"></path><path d="m286.513 183.886c-45.216-45.216-123.148-40.595-174.065 10.322s-55.539 128.849-10.322 174.065c45.216 45.216 103.695 21.142 154.612-29.775s74.991-109.396 29.775-154.612z" fill="#fff0ce" data-uid="o_fbdci1hia_23"></path><path fill="#00d6d3" data-type="circle" data-cx="352.19" data-cy="282.541" data-r="61.48" d="M352.19,282.541m-61.48,0a61.48,61.48 0 1, 0 122.96,0a61.48,61.48 0 1, 0 -122.96,0" data-uid="o_fbdci1hia_24"></path><path d="m411.714 297.978c-78.342 14.973-95.124-35.221-87.967-69.938-19.631 10.267-33.036 30.812-33.036 54.501 0 33.954 27.526 61.48 61.48 61.48 28.621 0 52.674-19.561 59.523-46.043z" fill="#00bed6" data-uid="o_fbdci1hia_25"></path><path d="m302.73 389.55c-14.024 3.204-27.99-5.568-31.194-19.592-4.073-17.827-4.268-46.234 7.396-72.498 5.841-13.147 21.23-19.072 34.378-13.232 13.147 5.839 19.071 21.23 13.233 34.377-6.934 15.612-5.916 32.332-4.221 39.751 3.203 14.024-5.568 27.99-19.592 31.194z" fill="#e9a982" data-uid="o_fbdci1hia_26"></path><path d="m379.302 379.722c-7.225-24.752-8.534-45.978-4.119-66.801 2.983-14.073 16.814-23.065 30.883-20.078 14.073 2.984 23.062 16.81 20.078 30.883-2.56 12.076-1.555 25.23 3.164 41.398 4.031 13.809-3.896 28.271-17.705 32.302-13.807 4.032-28.271-3.896-32.301-17.704z" fill="#e9a982" data-uid="o_fbdci1hia_27"></path><path d="m329.539 98.381c0 25.392 24.679 51.338 50.046 64.589 7.625 3.983 16.748 3.983 24.373 0 25.367-13.251 50.046-39.197 50.046-64.589 0-20.23-16.4-36.63-36.63-36.63-8.846 0-16.958 3.137-23.288 8.358-1.34 1.105-3.29 1.105-4.63 0-6.33-5.221-14.442-8.358-23.288-8.358-20.229.001-36.629 16.4-36.629 36.63z" fill="#ff6e80" data-uid="o_fbdci1hia_28"></path><path d="m371.177 62.092c-1.637-.224-3.309-.341-5.008-.341-20.23 0-36.63 16.4-36.63 36.63 0 25.392 24.679 51.338 50.046 64.589 7.625 3.983 16.748 3.983 24.373 0 7.532-3.935 15.004-8.989 21.787-14.815-64.332-6.623-62.562-62.648-54.568-86.063z" fill="#f8475e" data-uid="o_fbdci1hia_29"></path><path d="m376.113 169.619c9.805 5.121 21.514 5.121 31.318-.001 26.044-13.605 54.074-41.7 54.074-71.237 0-24.333-19.797-44.129-44.13-44.129-9.185 0-18.163 2.889-25.604 8.188-7.44-5.299-16.419-8.188-25.602-8.188-24.333 0-44.13 19.796-44.13 44.129.001 29.537 28.031 57.633 54.074 71.238zm-9.943-100.367c6.745 0 13.321 2.359 18.515 6.643 4.107 3.387 10.065 3.389 14.176.001 5.194-4.285 11.77-6.644 18.516-6.644 16.063 0 29.13 13.067 29.13 29.129 0 22.257-23.15 45.996-46.02 57.941-5.457 2.85-11.973 2.85-17.428.001-22.868-11.946-46.018-35.685-46.018-57.942-.001-16.062 13.066-29.129 29.129-29.129zm-159.392 185.241c-2.929 2.929-2.928 7.678.001 10.607 2.718 2.717 2.718 7.118 0 9.836s-7.118 2.718-9.837 0l-9.316-9.315c1.591-2.854 1.18-6.525-1.245-8.951-2.93-2.929-7.677-2.928-10.607.001l-7.84 7.841c-2.929 2.929-2.929 7.678 0 10.607 2.412 2.412 6.151 2.904 9.12 1.144l9.281 9.281c2.712 2.712 2.712 7.124 0 9.836-2.719 2.719-7.118 2.719-9.836 0-2.929-2.928-7.678-2.929-10.607 0s-2.929 7.678 0 10.607c8.581 8.581 22.469 8.581 31.05 0 3.8-3.8 6.035-8.747 6.383-14.06 5.313-.348 10.26-2.583 14.06-6.383 8.581-8.581 8.581-22.469 0-31.05-2.93-2.93-7.678-2.93-10.607-.001zm20.648-37.13c-2.929-2.93-7.678-2.929-10.606 0-2.929 2.929-2.929 7.677 0 10.606l8.485 8.485c2.928 2.929 7.678 2.929 10.607 0s2.929-7.677 0-10.606zm283.738 11.23c-1.564-18.417-17.822-32.128-36.268-30.584-18.474 1.571-32.155 17.794-30.583 36.268 2.481 29.179-2.75 51.855-15.157 66.386-2.229-3.594-5.129-6.766-8.568-9.315 5.329-41.714-27.316-77.787-68.397-77.787-13.036 0-25.238 3.637-35.648 9.947-5.659-30.619-30.517-55.749-58.706-68.2 2.635-22.827-9.61-45.526-35.766-66.029-10.72-8.403-25.557-9.867-37.798-3.729-3.703 1.856-5.2 6.363-3.343 10.066 1.857 3.704 6.365 5.2 10.066 3.343 3.358-1.684 7.049-2.369 10.661-2.121-6.921 9.23-12.315 26.308-9.275 49.49-9.962 1.244-19.771 3.579-29.277 6.948 2.733-9.432 6.535-19.762 10.924-29.51 1.7-3.777.017-8.218-3.76-9.918-3.778-1.701-8.217-.018-9.918 3.76-6.518 14.479-11.85 30.281-14.61 43.146-28.17 14.356-52.101 38.038-66.676 66.73-15.067 3.242-38.665 10.998-61.004 23.586-9.016 5.08-15.348 13.832-17.373 24.01-2.02 10.154.47 20.634 6.833 28.751 16.75 21.367 39.363 38.888 66.105 35.764 5.472 12.45 13.188 23.972 23.199 33.983 23.051 23.051 51.772 31.151 83.302 22.867 45.607 55.248 112.969 70.499 183.192 56.318 23.447-4.736 53.574-18.212 67.813-41.835 6.647-11.027 9.252-23.058 7.822-35.888 15.09-6.805 28.284-16.418 39.273-28.65 2.768-3.081 2.515-7.823-.566-10.591-3.084-2.768-7.822-2.514-10.592.567-8.877 9.881-19.414 17.807-31.399 23.651-3.631-13.55-4.323-24.654-2.186-34.733.597-2.815.819-5.625.702-8.376 13.144-11.579 21.375-28.361 24.406-49.531 11.398 2.699 24.184 3.35 37.175 1.48-1.718 14.331-5.234 27.514-10.565 39.411-1.693 3.78-.002 8.217 3.778 9.911s8.217.003 9.911-3.778c10.913-24.363 15.043-53.234 12.273-85.808zm-489.416 68.984c.583-.715 1.519-1.63 2.988-2.644 6.815-4.705 20.361-8.379 38.87-5.766-.145 12.212 1.427 24.264 4.728 35.769-15.603.375-31.228-8.793-46.586-27.359zm42.888-23.422c-23.24-3.064-40.352 2.344-49.585 9.281-.54-7.831 3.43-15.387 10.372-19.299 15.422-8.69 32.431-15.295 46.19-19.28-3.41 9.63-5.743 19.462-6.977 29.298zm287.554-45.595c30.708 0 55.436 25.756 53.911 56.662-17.475-2.895-34.493 8.4-38.255 26.143-1.647 7.768-2.531 15.578-2.676 23.566-12.153 3.011-24.46 1.621-35.072-3.143.747-3.358 1.81-6.785 3.299-10.139 7.507-16.906-.139-36.768-17.043-44.275-5.717-2.539-11.772-3.34-17.573-2.641 3.796-26.077 26.296-46.173 53.409-46.173zm-139.017-122.064c1.014-1.469 1.929-2.405 2.644-2.988 18.528 15.326 27.697 30.917 27.363 46.488-11.332-3.26-23.347-4.866-35.779-4.707-2.592-18.469 1.074-31.989 5.772-38.793zm-105.744 256.474c-42.219-42.22-37.589-115.547 10.322-163.459 23.327-23.326 53.269-37.187 84.311-39.027 30.711-1.824 58.815 8.374 79.146 28.705 13.415 13.415 20.66 28.636 21.575 45.283-11.709 12.032-19.064 28.304-19.528 46.269-4.732 3.366-8.654 7.995-11.177 13.676-3.698 8.326-6.267 16.856-7.948 25.234-3.977 4.531-8.231 9.079-12.695 13.544-32.452 32.45-94.312 79.469-144.006 29.775zm310.854 40.213c-7.689 12.756-26.947 28.616-57.936 34.875-67.803 13.692-125.901-2.934-164.879-46.808 21.466-8.862 43.618-24.594 66.074-46.955-.127 10.332.946 19.734 2.682 27.334.922 4.038 4.944 6.565 8.981 5.641 4.038-.922 6.564-4.944 5.642-8.982-3.804-16.65-3.978-43.201 6.939-67.782 4.151-9.347 15.131-13.574 24.479-9.422 9.346 4.151 13.573 15.132 9.423 24.478-7.231 16.279-7.04 34.127-4.679 44.465.922 4.038 4.944 6.564 8.982 5.642s6.564-4.943 5.642-8.981c-.488-2.135-.919-5.407-1.016-9.335 11.831 4.306 24.612 5.337 37.163 2.807.978 10.068 3.075 20.535 6.324 31.665 1.161 3.976 5.324 6.258 9.301 5.098 3.977-1.161 6.259-5.325 5.098-9.301-6.865-23.518-8.13-43.582-3.981-63.144 2.126-10.028 11.963-16.425 21.99-14.296 10.004 2.121 16.418 11.986 14.297 21.99-2.827 13.334-1.778 27.65 3.302 45.055 4.09 14.017 2.251 25.87-3.828 35.956zm78.616-149.715c-14.051 2.591-27.387 1.331-37.057-1.254.172-6.117-.016-12.52-.584-19.208-.868-10.226 6.708-19.185 16.903-20.051 10.201-.859 19.192 6.727 20.058 16.908.692 8.144.907 16.01.68 23.605zm-357.789 52.21c-2.929-2.929-7.678-2.929-10.607 0s-2.929 7.678 0 10.606l8.485 8.485c2.929 2.929 7.677 2.929 10.606 0s2.929-7.678 0-10.607z" data-uid="o_fbdci1hia_30"></path></g></svg></g></svg>